<svg width="18" height="18" viewBox="0 0 18 18" fill="none" xmlns="http://www.w3.org/2000/svg">
<g clip-path="url(#clip0_101_28)">
<path d="M13.7447 11.2375C12.5056 11.1248 11.8298 12.8148 10.9286 13.2655C9.46423 14.0542 6.76076 11.2375 6.76076 11.2375C6.76076 11.2375 3.94464 8.53336 4.62051 7.06864C5.18373 6.16728 6.87341 5.49125 6.76076 4.25188C6.64812 3.12517 4.16993 -0.930973 2.93084 0.195733C0.227367 2.67449 0.00207743 3.68852 0.00207743 5.7166C-0.110567 9.20939 4.39522 13.6035 4.39522 13.6035C4.8458 14.0542 8.78837 18.1104 12.2804 17.9977C14.308 17.9977 15.3218 17.7724 17.7999 15.0683C18.9264 13.8289 14.9838 11.3501 13.7447 11.2375Z" fill="#E0C144"/>
</g>
<defs>
<clipPath id="clip0_101_28">
<rect width="18" height="18" fill="white"/>
</clipPath>
</defs>
</svg>
