<svg width="64" height="64" viewBox="0 0 64 64" fill="none" xmlns="http://www.w3.org/2000/svg">
<g clip-path="url(#clip0_101_19)">
<circle cx="32" cy="32" r="32" fill="black"/>
<path d="M47.3023 16.6697C45.5062 14.8652 43.3674 13.4346 41.0103 12.4612C38.6533 11.4878 36.1252 10.9911 33.5734 11.0001C22.8808 11.0001 14.1665 19.6727 14.1567 30.3197C14.1567 33.7297 15.0529 37.0472 16.7448 39.9843L14 50L24.2936 47.3139C27.1412 48.8566 30.3314 49.6652 33.5734 49.6661H33.5832C44.2784 49.6661 52.9902 40.9935 53 30.3367C53.0024 27.797 52.5 25.2818 51.5217 22.9362C50.5434 20.5906 49.111 18.4609 47.3023 16.6697ZM33.5734 46.3949C30.6817 46.3959 27.8432 45.6213 25.3562 44.1525L24.7686 43.8015L18.662 45.3956L20.2927 39.4652L19.9107 38.8533C18.2942 36.2948 17.4393 33.3325 17.4451 30.3099C17.4451 21.4716 24.6853 14.2615 33.5832 14.2615C35.703 14.2577 37.8026 14.6717 39.7609 15.4795C41.7192 16.2873 43.4975 17.473 44.9933 18.9683C46.4944 20.4577 47.6843 22.2282 48.4945 24.1778C49.3048 26.1273 49.7192 28.2172 49.7141 30.327C49.7043 39.197 42.464 46.3949 33.5734 46.3949ZM42.4248 34.3684C41.9425 34.127 39.5601 32.9595 39.112 32.7937C38.6664 32.6353 38.3407 32.5524 38.0224 33.0351C37.6968 33.5152 36.7663 34.6097 36.4872 34.9241C36.2081 35.2483 35.9191 35.2849 35.4343 35.046C34.952 34.8022 33.3874 34.2952 31.5363 32.6451C30.0917 31.3654 29.1245 29.781 28.8356 29.3008C28.5564 28.8182 28.8086 28.5598 29.051 28.3185C29.2641 28.104 29.5334 27.753 29.7758 27.4751C30.0207 27.1973 30.1015 26.9925 30.2606 26.6708C30.4198 26.3441 30.3439 26.0663 30.2239 25.8249C30.1015 25.5836 29.1343 23.2022 28.7254 22.2418C28.3336 21.2936 27.9345 21.4253 27.6358 21.4131C27.3567 21.396 27.031 21.396 26.7054 21.396C26.4594 21.4021 26.2174 21.4587 25.9945 21.5623C25.7716 21.6659 25.5727 21.8143 25.4101 21.9981C24.9645 22.4807 23.7182 23.6483 23.7182 26.0297C23.7182 28.4111 25.4566 30.6999 25.7015 31.0241C25.9414 31.3483 29.1147 36.2209 33.9848 38.3171C35.1356 38.8168 36.0416 39.1117 36.7492 39.336C37.9122 39.7065 38.9626 39.6504 39.8 39.531C40.7305 39.3896 42.6672 38.361 43.0761 37.2324C43.4777 36.1014 43.4777 35.1362 43.3553 34.9339C43.2353 34.7291 42.9096 34.6097 42.4248 34.3684Z" fill="#E0C144"/>
</g>
<defs>
<clipPath id="clip0_101_19">
<rect width="64" height="64" fill="white"/>
</clipPath>
</defs>
</svg>
